<svg width="32" height="32" viewBox="0 0 32 32" fill="none" xmlns="http://www.w3.org/2000/svg">
<path fill-rule="evenodd" clip-rule="evenodd" d="M16 32C24.8366 32 32 24.8366 32 16C32 7.16344 24.8366 1.82563e-08 16 1.17609e-08C7.16344 5.26554e-09 5.3556e-09 7.16344 1.19621e-08 16C1.85685e-08 24.8366 7.16344 32 16 32ZM11.9575 9.06829C11.9573 9.04907 12.854 8.5764 13.95 8.01782C15.046 7.45926 15.9624 7.00124 15.9863 7.00002C16.0103 6.99879 16.1472 7.06207 16.2906 7.14074C16.434 7.2194 17.1811 7.60816 17.9508 8.00465C19.5436 8.82504 20.1306 9.13359 20.166 9.16874C20.1926 9.19523 20.0226 9.27408 18.3859 9.99364L17.2997 10.4712L16.6364 10.1375L15.9731 9.80397L15.3658 10.1096C15.0318 10.2777 14.7238 10.4164 14.6813 10.4178C14.588 10.421 11.958 9.11791 11.9575 9.06829ZM8.00206 11.0298L9.14298 10.4532C9.7705 10.1361 10.3318 9.87427 10.3903 9.87134C10.4487 9.86841 11.7169 10.4791 13.2083 11.2285C15.187 12.2226 15.8985 12.6073 15.8402 12.6514C15.7962 12.6847 15.4865 12.8306 15.1518 12.9757C14.8171 13.1208 14.4064 13.3018 14.2391 13.378C14.0225 13.4762 13.8056 13.5735 13.5882 13.6699L13.2415 13.8232L12.4625 13.4106C12.0048 13.1681 11.5473 12.9251 11.0901 12.6816L10.4969 12.3654L10.4969 15.0327L9.2828 15.5618C8.61507 15.8527 8.05373 16.0908 8.03542 16.0908C8.01704 16.0908 8.00206 14.9521 8.00206 13.5603L8.00206 11.0298ZM18.9575 11.2697C18.9582 11.2529 19.5945 10.9584 20.3716 10.6152C21.1486 10.2719 21.8051 9.99041 21.8306 9.98962C21.8561 9.98877 22.3426 10.2219 22.9118 10.5077L23.9466 11.0273L23.9303 12.5337L23.914 14.0402L23.1838 14.3675C22.7822 14.5476 21.6733 15.0395 20.7195 15.4607C19.6342 15.9401 18.549 16.4197 17.464 16.8997C15.0376 17.9732 13.9074 18.4711 12.4306 19.1172C11.6702 19.4498 11.0472 19.7393 11.0463 19.7606C11.0453 19.7819 11.0924 19.8145 11.151 19.8332C11.2096 19.8519 11.4765 19.9931 11.7443 20.1469C12.012 20.3008 12.3748 20.5003 12.5505 20.5905C12.7262 20.6806 12.87 20.7723 12.87 20.7942C12.87 20.8163 12.2334 21.1154 11.4552 21.4589L10.0405 22.0836L9.02027 21.575L8 21.0664L8.01625 19.5769C8.02988 18.328 8.04721 18.0792 8.12376 18.0364C8.19987 17.9938 8.75414 17.746 10.7707 16.8529L12.7483 15.9782L16.673 14.2425C17.8444 13.7244 19.2613 13.0983 19.8219 12.8512C20.3825 12.604 20.8411 12.3865 20.8411 12.3679C20.8411 12.3492 20.417 12.1014 19.8987 11.8171C19.3804 11.5328 18.9568 11.2864 18.9575 11.2697ZM22.9675 16.353C23.1831 16.2592 23.4843 16.1227 23.6368 16.0499C23.7893 15.977 23.9325 15.9152 23.9549 15.9126C24.0117 15.9058 24.0165 20.8654 23.9598 20.9494C23.9346 20.9867 23.3877 21.2837 22.7444 21.6092L21.5748 22.2012L18.8368 20.8101C17.3308 20.045 16.1184 19.4021 16.1425 19.3813C16.1666 19.3605 16.6791 19.1308 17.2815 18.8708C17.8839 18.6108 18.455 18.3602 18.5505 18.3139C18.7158 18.2338 18.7599 18.2485 19.4632 18.6172C20.4377 19.128 21.407 19.6144 21.4683 19.6233C21.4952 19.6272 21.5226 19.0353 21.5291 18.3079L21.5409 16.9853L22.0581 16.7545C22.3426 16.6275 22.7518 16.4469 22.9675 16.353ZM16.5513 22.1275C16.7541 22.0419 16.9569 21.9565 17.1598 21.8711L17.6466 21.6663L18.9194 22.2961C19.6195 22.6426 20.2008 22.9347 20.2114 22.9452C20.2218 22.9557 19.6628 23.2352 18.969 23.5664C18.2751 23.8974 17.32 24.3554 16.8465 24.5842L15.9856 25L13.9393 23.9902C12.1945 23.1291 11.7424 22.8648 12.0144 22.8648C12.0419 22.8648 12.5947 22.6286 13.243 22.3399C13.8912 22.0512 14.4773 21.7932 14.5454 21.7667C14.6362 21.7313 14.8453 21.8042 15.3305 22.0405C15.7205 22.2304 15.8673 22.3162 16.0135 22.3152C16.1404 22.3143 16.2668 22.2479 16.5513 22.1275Z" fill="white"/>
</svg>
